# xmcd CD database file generated by Grip 3.0.4
# 
# Track frame offsets:
#       150
#       16040
#       30184
#       45975
#       59908
# 
# Disc length: 1031 seconds
# 
# Revision: 1
# Processed by: cddbd v1.5.1PL0 Copyright (c) Steve Scherf et al.
# Submitted via: Grip 3.0.4
# 
DISCID=30040505
DTITLE=Steve Ivey - Best Of Bluegrass
DYEAR=2004
DGENRE=Bluegrass
TTITLE0=Just A closer Walk
TTITLE1=At THe Crossroads
TTITLE2=Don't Go
TTITLE3=Beleive
TTITLE4=It Is Well
EXTD=
EXTT0=
EXTT1=
EXTT2=
EXTT3=
EXTT4=
PLAYORDER=
